<?xml version="1.0" encoding="iso-8859-1"?>
<!-- Generator: Adobe Illustrator 19.0.0, SVG Export Plug-In . SVG Version: 6.00 Build 0)  -->
<svg version="1.1" id="Capa_1" xmlns="http://www.w3.org/2000/svg" xmlns:xlink="http://www.w3.org/1999/xlink" x="0px" y="0px"
	 viewBox="0 0 490.667 490.667" style="enable-background:new 0 0 490.667 490.667;" xml:space="preserve">
<path style="fill:#4CAF50;" d="M10.667,85.333H480c5.891,0,10.667,4.776,10.667,10.667v298.667c0,5.891-4.776,10.667-10.667,10.667
	H10.667C4.776,405.333,0,400.558,0,394.667V96C0,90.109,4.776,85.333,10.667,85.333z"/>
<g>
	<path style="fill:#FAFAFA;" d="M245.333,320c-25.365,2.505-48.469-14.703-53.333-39.723c-0.492-5.867,3.862-11.023,9.728-11.52
		c5.803-0.298,10.842,3.957,11.52,9.728c0.939,11.115,15.296,20.181,32,20.181c17.365,0,32-9.771,32-21.333
		c0-10.389-10.112-17.067-31.787-21.099l-2.325-0.448c-34.581-6.4-51.2-20.48-51.2-42.432c3.337-26.292,26.95-45.182,53.333-42.667
		c25.365-2.505,48.469,14.703,53.333,39.723c0.492,5.867-3.862,11.023-9.728,11.52c-5.785,0.245-10.793-3.983-11.52-9.728
		c-0.939-11.115-15.296-20.181-32-20.181c-17.365,0-32,9.771-32,21.333c0,10.432,10.155,17.067,32,21.12l2.24,0.427
		c34.603,6.4,51.2,20.565,51.2,42.453C295.447,303.693,271.757,322.59,245.333,320z"/>
	<path style="fill:#FAFAFA;" d="M245.333,341.333c-5.891,0-10.667-4.776-10.667-10.667V160c0-5.891,4.776-10.667,10.667-10.667
		c5.891,0,10.667,4.776,10.667,10.667v170.667C256,336.558,251.224,341.333,245.333,341.333z"/>
	<path style="fill:#FAFAFA;" d="M437.333,149.333h-42.667c-5.891,0-10.667-4.776-10.667-10.667S388.776,128,394.667,128h42.667
		c5.891,0,10.667,4.776,10.667,10.667S443.224,149.333,437.333,149.333z"/>
	<path style="fill:#FAFAFA;" d="M96,362.667H53.333c-5.891,0-10.667-4.776-10.667-10.667c0-5.891,4.776-10.667,10.667-10.667H96
		c5.891,0,10.667,4.776,10.667,10.667C106.667,357.891,101.891,362.667,96,362.667z"/>
</g>
<g>
</g>
<g>
</g>
<g>
</g>
<g>
</g>
<g>
</g>
<g>
</g>
<g>
</g>
<g>
</g>
<g>
</g>
<g>
</g>
<g>
</g>
<g>
</g>
<g>
</g>
<g>
</g>
<g>
</g>
</svg>
